<?xml version="1.0" standalone="no"?>
<!DOCTYPE svg PUBLIC "-//W3C//DTD SVG 20010904//EN"
 "http://www.w3.org/TR/2001/REC-SVG-20010904/DTD/svg10.dtd">
<svg version="1.0" xmlns="http://www.w3.org/2000/svg"
 width="402.000000pt" height="437.000000pt" viewBox="0 0 402.000000 437.000000"
 preserveAspectRatio="xMidYMid meet">

<g transform="translate(0.000000,437.000000) scale(0.100000,-0.100000)"
fill="#000000" stroke="none">
<path d="M1844 3966 c-29 -29 -34 -41 -34 -80 0 -36 6 -52 29 -78 25 -28 36
-33 73 -33 85 0 139 67 118 146 -13 48 -57 79 -113 79 -31 0 -46 -7 -73 -34z
m114 -53 c21 -40 -30 -90 -63 -63 -18 15 -19 52 -3 68 18 18 56 15 66 -5z"/>
<path d="M1892 3353 l3 -328 30 0 30 0 3 328 2 327 -35 0 -35 0 2 -327z"/>
<path d="M863 3398 l-32 -33 32 -38 32 -38 32 33 31 33 -32 38 -31 38 -32 -33z"/>
<path d="M2920 3395 l-34 -35 29 -30 c36 -37 46 -37 73 0 28 37 28 41 -6 73
l-28 27 -34 -35z"/>
<path d="M1505 3365 c-14 -13 -25 -33 -25 -43 0 -27 38 -72 59 -72 32 0 71 39
71 70 0 19 -9 36 -26 49 -34 27 -50 26 -79 -4z"/>
<path d="M2273 3380 c-23 -10 -43 -39 -43 -65 0 -23 45 -65 70 -65 26 0 70 43
70 68 0 44 -55 79 -97 62z"/>
<path d="M996 3241 c-10 -11 -16 -24 -15 -30 5 -13 391 -401 399 -401 10 0 40
35 40 46 0 10 -391 404 -401 404 -3 0 -14 -9 -23 -19z"/>
<path d="M2624 3067 c-105 -106 -194 -198 -198 -205 -9 -14 19 -52 38 -52 14
0 406 392 406 406 0 13 -33 44 -46 43 -5 0 -95 -87 -200 -192z"/>
<path d="M1610 3026 c-6 -8 -10 -25 -8 -38 4 -32 52 -38 68 -9 22 43 -29 83
-60 47z"/>
<path d="M2180 3025 c-26 -32 13 -81 48 -59 34 22 22 74 -18 74 -10 0 -23 -7
-30 -15z"/>
<path d="M1740 2834 c-110 -33 -159 -62 -247 -147 -125 -120 -183 -262 -183
-447 0 -176 54 -311 175 -433 240 -243 603 -246 860 -5 58 54 81 85 113 151
124 252 84 539 -99 726 -121 123 -240 173 -419 178 -100 3 -126 0 -200 -23z
m322 -88 c256 -78 418 -347 364 -606 -54 -259 -288 -439 -543 -416 -150 14
-227 51 -330 159 -81 86 -117 154 -145 277 -13 54 4 208 29 272 63 163 230
303 389 327 71 11 173 5 236 -13z"/>
<path d="M1793 2646 c-200 -65 -322 -277 -279 -485 19 -93 57 -161 123 -221
184 -168 442 -150 608 44 57 67 86 145 92 252 6 80 5 84 -36 169 -49 103 -120
178 -208 221 -50 25 -71 29 -158 31 -64 2 -115 -2 -142 -11z m219 -97 c96 -24
197 -134 219 -237 32 -155 -34 -288 -177 -358 -49 -24 -71 -29 -134 -29 -129
1 -229 65 -288 184 -23 48 -27 68 -27 141 0 103 22 158 86 220 92 89 187 112
321 79z"/>
<path d="M1790 2453 c-8 -3 -27 -17 -42 -31 -59 -54 -24 -162 52 -162 97 0
147 105 81 171 -28 28 -57 35 -91 22z"/>
<path d="M817 2802 c-22 -25 -21 -75 1 -95 25 -22 75 -21 95 1 25 27 22 78 -5
96 -30 21 -71 20 -91 -2z"/>
<path d="M2936 2804 c-37 -36 -7 -114 43 -114 36 0 61 28 61 68 0 52 -68 82
-104 46z"/>
<path d="M1142 2608 c-28 -28 -1 -75 37 -63 25 8 34 31 21 56 -12 21 -40 25
-58 7z"/>
<path d="M2652 2608 c-25 -25 -6 -68 30 -68 9 0 22 9 28 20 22 40 -26 80 -58
48z"/>
<path d="M278 2352 c-15 -2 -40 -18 -58 -38 -87 -100 26 -245 140 -178 36 22
60 64 60 108 0 64 -69 117 -142 108z m53 -82 c36 -20 17 -70 -27 -70 -33 0
-49 25 -36 55 12 27 32 31 63 15z"/>
<path d="M3495 2351 c-56 -17 -85 -59 -85 -121 0 -57 50 -110 104 -110 80 0
133 58 123 132 -9 70 -80 119 -142 99z m65 -90 c22 -42 -27 -86 -61 -55 -22
20 -25 44 -7 62 18 18 56 14 68 -7z"/>
<path d="M513 2273 c-7 -2 -13 -18 -13 -34 l0 -29 318 2 317 3 3 24 c2 13 -2
28 -10 32 -14 9 -594 11 -615 2z"/>
<path d="M2705 2260 c-14 -16 -15 -22 -5 -35 11 -13 57 -15 322 -15 l309 0 -3
33 -3 32 -301 3 c-289 2 -301 2 -319 -18z"/>
<path d="M1146 1944 c-21 -20 -20 -37 3 -58 21 -19 48 -12 56 15 12 37 -33 70
-59 43z"/>
<path d="M2656 1944 c-9 -8 -16 -22 -16 -29 0 -15 26 -45 39 -45 11 0 41 35
41 48 0 13 -28 42 -40 42 -5 0 -16 -7 -24 -16z"/>
<path d="M826 1785 c-42 -42 -18 -107 42 -113 54 -6 83 67 42 108 -24 24 -63
26 -84 5z"/>
<path d="M2936 1778 c-47 -67 28 -144 84 -88 39 39 14 110 -40 110 -18 0 -34
-8 -44 -22z"/>
<path d="M1170 1454 l-205 -205 29 -26 29 -25 22 24 c12 13 101 105 198 204
98 100 177 186 177 192 0 12 -28 42 -39 42 -3 0 -99 -93 -211 -206z"/>
<path d="M2433 1641 c-16 -26 -2 -43 220 -265 173 -174 178 -178 197 -161 11
10 20 24 20 32 0 19 -391 413 -410 413 -8 0 -21 -9 -27 -19z"/>
<path d="M1612 1498 c-32 -32 2 -79 43 -60 39 18 27 72 -15 72 -9 0 -21 -5
-28 -12z"/>
<path d="M2182 1498 c-25 -25 -6 -68 30 -68 26 0 45 44 28 65 -15 18 -41 20
-58 3z"/>
<path d="M1897 1433 c-4 -7 -11 -504 -8 -561 1 -20 6 -23 34 -20 l32 3 3 279
c2 197 -1 283 -9 292 -12 15 -45 19 -52 7z"/>
<path d="M2273 1210 c-18 -11 -34 -28 -34 -37 -5 -70 46 -105 99 -67 30 21 30
73 -1 102 -28 27 -25 26 -64 2z"/>
<path d="M1500 1204 c-19 -22 -16 -70 5 -94 25 -28 60 -25 85 7 36 46 8 103
-51 103 -14 0 -32 -7 -39 -16z"/>
<path d="M861 1134 c-26 -33 -26 -33 5 -68 l26 -29 31 31 31 32 -20 27 c-28
37 -48 39 -73 7z"/>
<path d="M2918 1133 l-27 -28 31 -34 30 -34 30 31 30 30 -23 31 c-28 38 -38
39 -71 4z"/>
<path d="M1880 705 l0 -45 40 0 40 0 0 45 0 45 -40 0 -40 0 0 -45z"/>
</g>
</svg>
